<svg version="1.1" xmlns="http://www.w3.org/2000/svg" xmlns:xlink="http://www.w3.org/1999/xlink" width="128px" height="128px" viewBox="0,0,256,256"><g fill="#fe4bc6" fill-rule="nonzero" stroke="none" stroke-width="1" stroke-linecap="butt" stroke-linejoin="miter" stroke-miterlimit="10" stroke-dasharray="" stroke-dashoffset="0" font-family="none" font-weight="none" font-size="none" text-anchor="none" style="mix-blend-mode: normal"><g transform="scale(2,2)"><path d="M115.1,53.5l6.9,-28.8c0.2,-0.9 0,-1.8 -0.6,-2.6c-0.6,-0.7 -1.4,-1.1 -2.4,-1.1h-97.5c-2.7,-12.3 -10.2,-19 -10.5,-19.3c-1.3,-1 -3.2,-0.9 -4.2,0.3c-1.1,1.3 -1,3.2 0.2,4.2c0.1,0.1 7.2,6.5 9,18.2l8.7,57.5c1,6.4 6.4,11.1 12.9,11.1h59.4c1.7,0 3,-1.3 3,-3c0,-1.7 -1.3,-3 -3,-3h-59.4c-3.5,0 -6.4,-2.5 -6.9,-6l-0.1,-0.6l65.4,-9.5c9.4,-1.3 16.9,-8.2 19.1,-17.4zM50,59c0,1.7 -1.3,3 -3,3c-1.7,0 -3,-1.3 -3,-3v-24c0,-1.7 1.3,-3 3,-3c1.7,0 3,1.3 3,3zM70,59c0,1.7 -1.3,3 -3,3c-1.7,0 -3,-1.3 -3,-3v-24c0,-1.7 1.3,-3 3,-3c1.7,0 3,1.3 3,3zM90,59c0,1.7 -1.3,3 -3,3c-1.7,0 -3,-1.3 -3,-3v-24c0,-1.7 1.3,-3 3,-3c1.7,0 3,1.3 3,3zM31,114c0,7.2 5.8,13 13,13c7.2,0 13,-5.8 13,-13c0,-7.2 -5.8,-13 -13,-13c-7.2,0 -13,5.8 -13,13zM51,114c0,3.9 -3.1,7 -7,7c-3.9,0 -7,-3.1 -7,-7c0,-3.9 3.1,-7 7,-7c3.9,0 7,3.1 7,7zM87,101c-7.2,0 -13,5.8 -13,13c0,7.2 5.8,13 13,13c7.2,0 13,-5.8 13,-13c0,-7.2 -5.8,-13 -13,-13zM87,121c-3.9,0 -7,-3.1 -7,-7c0,-3.9 3.1,-7 7,-7c3.9,0 7,3.1 7,7c0,3.9 -3.1,7 -7,7z"></path></g></g></svg>