<svg version="1.1" xmlns="http://www.w3.org/2000/svg" xmlns:xlink="http://www.w3.org/1999/xlink" width="512px" height="512px" viewBox="0,0,256,256"><g fill="none" fill-rule="nonzero" stroke="none" stroke-width="1" stroke-linecap="butt" stroke-linejoin="miter" stroke-miterlimit="10" stroke-dasharray="" stroke-dashoffset="0" font-family="none" font-weight="none" font-size="none" text-anchor="none" style="mix-blend-mode: normal"><g transform="scale(0.5,0.5)"><circle cx="299.197" cy="267.707" r="11.842" fill="#ff9dde"></circle><circle cx="374.931" cy="267.707" r="11.842" fill="#ff9dde"></circle><path d="M420.20944,124.49386l-149.85345,-0.47547l10.96106,92.47968l117.84601,0.4474z" fill="#ff9dde"></path><circle cx="270" cy="336.608" r="9" fill="#fe5f55"></circle><circle cx="242" cy="336.608" r="9" fill="#fe5f55"></circle><path d="M458,31.94287h-404c-12.13086,0 -22,9.86914 -22,22v324.42334c0,12.13086 9.86914,22 22,22h148.59857l-14.38605,63.69092h-27.99817c-4.41846,0 -8,3.58154 -8,8c0,4.41846 3.58154,8 8,8h191.57178c4.41797,0 8,-3.58154 8,-8c0,-4.41846 -3.58203,-8 -8,-8h-27.99866l-14.38605,-63.69092h148.59857c12.13086,0 22,-9.86914 22,-22v-324.42334c0,-12.13086 -9.86914,-22 -22,-22zM307.38373,464.05713h-102.76843l14.38605,-63.69092h73.99634l14.38605,63.69092zM458,384.36621h-404c-3.30859,0 -6,-2.69141 -6,-6v-33.7583h164.60693c4.41846,0 8,-3.58154 8,-8c0,-4.41846 -3.58154,-8 -8,-8h-158.60693c-3.30859,0 -6,-2.69141 -6,-6v-268.66504c0,-3.30859 2.69141,-6 6,-6h404c3.30859,0 6,2.69141 6,6v268.66504c0,3.30859 -2.69141,6 -6,6h-157.17871c-4.41797,0 -8,3.58154 -8,8c0,4.41846 3.58203,8 8,8h163.17871v33.7583c0,3.30859 -2.69141,6 -6,6z" fill="#fc3aba"></path><path d="M322.49902,267.67236c0,-2.52466 -0.40887,-4.95435 -1.15485,-7.23291h31.43958c-0.74597,2.27856 -1.15485,4.70825 -1.15485,7.23291c0,12.84912 10.45312,23.30273 23.30176,23.30273c12.84961,0 23.30273,-10.45361 23.30273,-23.30273c0,-14.96307 -14.08512,-23.23291 -19.07715,-23.23291h-108.30762c-5.70215,0 -10.51953,-3.45947 -10.51953,-7.5542c0,-4.09473 4.81738,-7.5542 10.51953,-7.5542h124.12305c7.71094,0 14.27539,-5.25488 15.96289,-12.77979l19.05762,-84.979c1.09082,-4.86182 -0.06543,-9.88428 -3.17188,-13.77979c-3.10645,-3.89551 -7.74512,-6.14062 -12.75879,-6.15967h-139.77344l-1.35547,-11.43652c-0.8916,-8.33496 -7.88477,-14.62061 -16.26709,-14.62061h-21.73682c-4.41846,0 -8,3.58154 -8,8c0,4.41846 3.58154,8 8,8c22.06107,0 22.03036,-0.25868 22.10449,0.41211l13.19855,111.35718c-14.33832,0.29309 -25.90265,10.73621 -25.90265,23.54028c0,12.98779 11.89648,23.5542 26.51953,23.5542h6.20074c-0.74597,2.27856 -1.15485,4.70825 -1.15485,7.23291c0,12.84912 10.45312,23.30273 23.30273,23.30273c12.84863,0 23.30176,-10.45361 23.30176,-23.30273zM414.03125,127.63281c0.06445,0 0.17188,0.00049 0.2793,0.13525c0.10742,0.13476 0.08398,0.24023 0.07031,0.30322l-19.05762,84.97803c-0.03711,0.16602 -0.18164,0.28174 -0.35156,0.28174h-108.31152c-0.18359,0 -0.33691,-0.13818 -0.36719,-0.4126l-10.1084,-85.28564zM374.93066,274.9751c-4.02637,0 -7.30176,-3.27588 -7.30176,-7.30273c0,-3.70306 2.77283,-6.7641 6.35004,-7.23291h1.90344c3.57727,0.46881 6.35101,3.52985 6.35101,7.23291c0,4.02686 -3.27637,7.30273 -7.30273,7.30273zM291.89453,267.67237c0,-3.70306 2.77374,-6.7641 6.35101,-7.23291h1.90344c3.57721,0.46881 6.35004,3.52985 6.35004,7.23291c0,4.02686 -3.27539,7.30273 -7.30176,7.30273c-4.02637,0 -7.30273,-3.27588 -7.30273,-7.30273z" fill="#fc3aba"></path><path d="M317.78125,178.10791h14.33887v14.07129c0,4.41846 3.58203,8 8,8c4.41797,0 8,-3.58154 8,-8v-14.07129h14.33984c4.41797,0 8,-3.58154 8,-8c0,-4.41846 -3.58203,-8 -8,-8h-14.33984v-14.07178c0,-4.41846 -3.58203,-8 -8,-8c-4.41797,0 -8,3.58154 -8,8v14.07178h-14.33887c-4.41797,0 -8,3.58154 -8,8c0,4.41846 3.58203,8 8,8z" fill="#ffffff"></path><path d="M175.8161,162.43481c8.59204,-8.12164 13.96954,-19.61053 13.96954,-32.33862c0,-24.54883 -19.97217,-44.52051 -44.521,-44.52051c-24.54883,0 -44.52051,19.97168 -44.52051,44.52051c0,12.6759 5.33368,24.12244 13.86407,32.23834c-21.99426,8.28784 -37.68585,29.5412 -37.68585,54.39838v59.24219c0,8.271 6.729,15 15,15h106.68457c8.271,0 15,-6.729 15,-15v-58.79834c0,-24.97815 -15.72528,-46.34204 -37.79083,-54.74194zM145.26465,101.57568c15.72656,0 28.521,12.79443 28.521,28.52051c0,15.72608 -12.79443,28.521 -28.521,28.521c-15.72657,0 -28.52051,-12.79443 -28.52051,-28.521c0,-15.72657 12.79443,-28.52051 28.52051,-28.52051zM197.60694,274.97509h-104.68458v-58.24219c0,-23.22266 18.89307,-42.11572 42.11621,-42.11572h20.00928c23.46729,0 42.55908,19.09229 42.55908,42.55957v57.79834z" fill="#fc3aba"></path></g></g></svg>