<svg xmlns="http://www.w3.org/2000/svg" version="1.1" xmlns:xlink="http://www.w3.org/1999/xlink" xmlns:svgjs="http://svgjs.com/svgjs" width="1440" height="560" preserveAspectRatio="none" viewBox="0 0 1440 560"><g mask="url(&quot;#SvgjsMask1016&quot;)" fill="none"><rect width="1440" height="560" x="0" y="0" fill="rgba(21, 16, 22, 1)"></rect><path d="M-62.97 394.29L-62.97 394.29" stroke="rgba(108, 3, 85, 1)" stroke-width="1.5"></path><path d="M-62.97 394.29L50.25 371.02" stroke="rgba(108, 3, 85, 1)" stroke-width="1.5"></path><path d="M-62.97 394.29L-85.89 560.05" stroke="rgba(108, 3, 85, 1)" stroke-width="1.5"></path><path d="M-62.97 394.29L109.67 501.66" stroke="rgba(108, 3, 85, 1)" stroke-width="1.5"></path><path d="M-85.89 560.05L-85.89 560.05" stroke="rgba(108, 3, 85, 1)" stroke-width="1.5"></path><path d="M-85.89 560.05L109.67 501.66" stroke="rgba(108, 3, 85, 1)" stroke-width="1.5"></path><path d="M-85.89 560.05L78.44 692.48" stroke="rgba(108, 3, 85, 1)" stroke-width="1.5"></path><path d="M50.25 371.02L50.25 371.02" stroke="rgba(108, 3, 85, 1)" stroke-width="1.5"></path><path d="M50.25 371.02L109.67 501.66" stroke="rgba(108, 3, 85, 1)" stroke-width="1.5"></path><path d="M50.25 371.02L210.79 497.12" stroke="rgba(108, 3, 85, 1)" stroke-width="1.5"></path><path d="M109.67 501.66L109.67 501.66" stroke="rgba(108, 3, 85, 1)" stroke-width="1.5"></path><path d="M109.67 501.66L210.79 497.12" stroke="rgba(108, 3, 85, 1)" stroke-width="1.5"></path><path d="M78.44 692.48L78.44 692.48" stroke="rgba(108, 3, 85, 1)" stroke-width="1.5"></path><path d="M78.44 692.48L225.87 671.56" stroke="rgba(108, 3, 85, 1)" stroke-width="1.5"></path><path d="M78.44 692.48L109.67 501.66" stroke="rgba(108, 3, 85, 1)" stroke-width="1.5"></path><path d="M78.44 692.48L210.79 497.12" stroke="rgba(108, 3, 85, 1)" stroke-width="1.5"></path><path d="M78.44 692.48L50.25 371.02" stroke="rgba(108, 3, 85, 1)" stroke-width="1.5"></path><path d="M78.44 692.48L402.43 648.97" stroke="rgba(108, 3, 85, 1)" stroke-width="1.5"></path><path d="M259.36 338.59L259.36 338.59" stroke="rgba(108, 3, 85, 1)" stroke-width="1.5"></path><path d="M259.36 338.59L370 360.54" stroke="rgba(108, 3, 85, 1)" stroke-width="1.5"></path><path d="M259.36 338.59L210.79 497.12" stroke="rgba(108, 3, 85, 1)" stroke-width="1.5"></path><path d="M259.36 338.59L379.59 508.48" stroke="rgba(108, 3, 85, 1)" stroke-width="1.5"></path><path d="M259.36 338.59L50.25 371.02" stroke="rgba(108, 3, 85, 1)" stroke-width="1.5"></path><path d="M259.36 338.59L109.67 501.66" stroke="rgba(108, 3, 85, 1)" stroke-width="1.5"></path><path d="M210.79 497.12L210.79 497.12" stroke="rgba(108, 3, 85, 1)" stroke-width="1.5"></path><path d="M210.79 497.12L379.59 508.48" stroke="rgba(108, 3, 85, 1)" stroke-width="1.5"></path><path d="M210.79 497.12L225.87 671.56" stroke="rgba(108, 3, 85, 1)" stroke-width="1.5"></path><path d="M225.87 671.56L225.87 671.56" stroke="rgba(108, 3, 85, 1)" stroke-width="1.5"></path><path d="M225.87 671.56L402.43 648.97" stroke="rgba(108, 3, 85, 1)" stroke-width="1.5"></path><path d="M225.87 671.56L109.67 501.66" stroke="rgba(108, 3, 85, 1)" stroke-width="1.5"></path><path d="M225.87 671.56L379.59 508.48" stroke="rgba(108, 3, 85, 1)" stroke-width="1.5"></path><path d="M225.87 671.56L533.69 640.25" stroke="rgba(108, 3, 85, 1)" stroke-width="1.5"></path><path d="M370 360.54L370 360.54" stroke="rgba(108, 3, 85, 1)" stroke-width="1.5"></path><path d="M370 360.54L379.59 508.48" stroke="rgba(108, 3, 85, 1)" stroke-width="1.5"></path><path d="M370 360.54L546.91 396.84" stroke="rgba(108, 3, 85, 1)" stroke-width="1.5"></path><path d="M370 360.54L210.79 497.12" stroke="rgba(108, 3, 85, 1)" stroke-width="1.5"></path><path d="M379.59 508.48L379.59 508.48" stroke="rgba(108, 3, 85, 1)" stroke-width="1.5"></path><path d="M379.59 508.48L402.43 648.97" stroke="rgba(108, 3, 85, 1)" stroke-width="1.5"></path><path d="M379.59 508.48L516.46 550.53" stroke="rgba(108, 3, 85, 1)" stroke-width="1.5"></path><path d="M402.43 648.97L402.43 648.97" stroke="rgba(108, 3, 85, 1)" stroke-width="1.5"></path><path d="M402.43 648.97L533.69 640.25" stroke="rgba(108, 3, 85, 1)" stroke-width="1.5"></path><path d="M402.43 648.97L516.46 550.53" stroke="rgba(108, 3, 85, 1)" stroke-width="1.5"></path><path d="M402.43 648.97L639.32 672.92" stroke="rgba(108, 3, 85, 1)" stroke-width="1.5"></path><path d="M402.43 648.97L210.79 497.12" stroke="rgba(108, 3, 85, 1)" stroke-width="1.5"></path><path d="M546.91 396.84L546.91 396.84" stroke="rgba(108, 3, 85, 1)" stroke-width="1.5"></path><path d="M546.91 396.84L516.46 550.53" stroke="rgba(108, 3, 85, 1)" stroke-width="1.5"></path><path d="M546.91 396.84L706.48 340.56" stroke="rgba(108, 3, 85, 1)" stroke-width="1.5"></path><path d="M546.91 396.84L680.55 508.21" stroke="rgba(108, 3, 85, 1)" stroke-width="1.5"></path><path d="M516.46 550.53L516.46 550.53" stroke="rgba(108, 3, 85, 1)" stroke-width="1.5"></path><path d="M516.46 550.53L533.69 640.25" stroke="rgba(108, 3, 85, 1)" stroke-width="1.5"></path><path d="M533.69 640.25L533.69 640.25" stroke="rgba(108, 3, 85, 1)" stroke-width="1.5"></path><path d="M533.69 640.25L639.32 672.92" stroke="rgba(108, 3, 85, 1)" stroke-width="1.5"></path><path d="M706.48 340.56L706.48 340.56" stroke="rgba(108, 3, 85, 1)" stroke-width="1.5"></path><path d="M706.48 340.56L798.37 350.31" stroke="rgba(108, 3, 85, 1)" stroke-width="1.5"></path><path d="M706.48 340.56L680.55 508.21" stroke="rgba(108, 3, 85, 1)" stroke-width="1.5"></path><path d="M706.48 340.56L826.91 207.93" stroke="rgba(108, 3, 85, 1)" stroke-width="1.5"></path><path d="M680.55 508.21L680.55 508.21" stroke="rgba(108, 3, 85, 1)" stroke-width="1.5"></path><path d="M680.55 508.21L831.39 498.13" stroke="rgba(108, 3, 85, 1)" stroke-width="1.5"></path><path d="M680.55 508.21L516.46 550.53" stroke="rgba(108, 3, 85, 1)" stroke-width="1.5"></path><path d="M680.55 508.21L639.32 672.92" stroke="rgba(108, 3, 85, 1)" stroke-width="1.5"></path><path d="M639.32 672.92L639.32 672.92" stroke="rgba(108, 3, 85, 1)" stroke-width="1.5"></path><path d="M639.32 672.92L516.46 550.53" stroke="rgba(108, 3, 85, 1)" stroke-width="1.5"></path><path d="M639.32 672.92L814.19 645.83" stroke="rgba(108, 3, 85, 1)" stroke-width="1.5"></path><path d="M860.38 83.84L860.38 83.84" stroke="rgba(108, 3, 85, 1)" stroke-width="1.5"></path><path d="M860.38 83.84L959.87 106.5" stroke="rgba(108, 3, 85, 1)" stroke-width="1.5"></path><path d="M860.38 83.84L826.91 207.93" stroke="rgba(108, 3, 85, 1)" stroke-width="1.5"></path><path d="M860.38 83.84L987.02 215.53" stroke="rgba(108, 3, 85, 1)" stroke-width="1.5"></path><path d="M860.38 83.84L993.4 -75.95" stroke="rgba(108, 3, 85, 1)" stroke-width="1.5"></path><path d="M860.38 83.84L798.37 350.31" stroke="rgba(108, 3, 85, 1)" stroke-width="1.5"></path><path d="M826.91 207.93L826.91 207.93" stroke="rgba(108, 3, 85, 1)" stroke-width="1.5"></path><path d="M826.91 207.93L798.37 350.31" stroke="rgba(108, 3, 85, 1)" stroke-width="1.5"></path><path d="M826.91 207.93L987.02 215.53" stroke="rgba(108, 3, 85, 1)" stroke-width="1.5"></path><path d="M798.37 350.31L798.37 350.31" stroke="rgba(108, 3, 85, 1)" stroke-width="1.5"></path><path d="M798.37 350.31L941.98 354.55" stroke="rgba(108, 3, 85, 1)" stroke-width="1.5"></path><path d="M798.37 350.31L831.39 498.13" stroke="rgba(108, 3, 85, 1)" stroke-width="1.5"></path><path d="M798.37 350.31L680.55 508.21" stroke="rgba(108, 3, 85, 1)" stroke-width="1.5"></path><path d="M798.37 350.31L987.02 215.53" stroke="rgba(108, 3, 85, 1)" stroke-width="1.5"></path><path d="M831.39 498.13L831.39 498.13" stroke="rgba(108, 3, 85, 1)" stroke-width="1.5"></path><path d="M831.39 498.13L814.19 645.83" stroke="rgba(108, 3, 85, 1)" stroke-width="1.5"></path><path d="M814.19 645.83L814.19 645.83" stroke="rgba(108, 3, 85, 1)" stroke-width="1.5"></path><path d="M814.19 645.83L988.24 707.41" stroke="rgba(108, 3, 85, 1)" stroke-width="1.5"></path><path d="M814.19 645.83L680.55 508.21" stroke="rgba(108, 3, 85, 1)" stroke-width="1.5"></path><path d="M814.19 645.83L1003 509.49" stroke="rgba(108, 3, 85, 1)" stroke-width="1.5"></path><path d="M814.19 645.83L533.69 640.25" stroke="rgba(108, 3, 85, 1)" stroke-width="1.5"></path><path d="M993.4 -75.95L993.4 -75.95" stroke="rgba(108, 3, 85, 1)" stroke-width="1.5"></path><path d="M993.4 -75.95L1147.75 -59.52" stroke="rgba(108, 3, 85, 1)" stroke-width="1.5"></path><path d="M993.4 -75.95L959.87 106.5" stroke="rgba(108, 3, 85, 1)" stroke-width="1.5"></path><path d="M959.87 106.5L959.87 106.5" stroke="rgba(108, 3, 85, 1)" stroke-width="1.5"></path><path d="M959.87 106.5L987.02 215.53" stroke="rgba(108, 3, 85, 1)" stroke-width="1.5"></path><path d="M959.87 106.5L826.91 207.93" stroke="rgba(108, 3, 85, 1)" stroke-width="1.5"></path><path d="M987.02 215.53L987.02 215.53" stroke="rgba(108, 3, 85, 1)" stroke-width="1.5"></path><path d="M987.02 215.53L941.98 354.55" stroke="rgba(108, 3, 85, 1)" stroke-width="1.5"></path><path d="M941.98 354.55L941.98 354.55" stroke="rgba(108, 3, 85, 1)" stroke-width="1.5"></path><path d="M941.98 354.55L1106.38 340.32" stroke="rgba(108, 3, 85, 1)" stroke-width="1.5"></path><path d="M941.98 354.55L1003 509.49" stroke="rgba(108, 3, 85, 1)" stroke-width="1.5"></path><path d="M941.98 354.55L831.39 498.13" stroke="rgba(108, 3, 85, 1)" stroke-width="1.5"></path><path d="M941.98 354.55L826.91 207.93" stroke="rgba(108, 3, 85, 1)" stroke-width="1.5"></path><path d="M1003 509.49L1003 509.49" stroke="rgba(108, 3, 85, 1)" stroke-width="1.5"></path><path d="M1003 509.49L1109.43 642.02" stroke="rgba(108, 3, 85, 1)" stroke-width="1.5"></path><path d="M1003 509.49L831.39 498.13" stroke="rgba(108, 3, 85, 1)" stroke-width="1.5"></path><path d="M988.24 707.41L988.24 707.41" stroke="rgba(108, 3, 85, 1)" stroke-width="1.5"></path><path d="M988.24 707.41L1109.43 642.02" stroke="rgba(108, 3, 85, 1)" stroke-width="1.5"></path><path d="M988.24 707.41L1003 509.49" stroke="rgba(108, 3, 85, 1)" stroke-width="1.5"></path><path d="M1147.75 -59.52L1147.75 -59.52" stroke="rgba(108, 3, 85, 1)" stroke-width="1.5"></path><path d="M1147.75 -59.52L1157.21 60.48" stroke="rgba(108, 3, 85, 1)" stroke-width="1.5"></path><path d="M1147.75 -59.52L1265.2 -110.83" stroke="rgba(108, 3, 85, 1)" stroke-width="1.5"></path><path d="M1157.21 60.48L1157.21 60.48" stroke="rgba(108, 3, 85, 1)" stroke-width="1.5"></path><path d="M1157.21 60.48L1291.5 63.83" stroke="rgba(108, 3, 85, 1)" stroke-width="1.5"></path><path d="M1157.21 60.48L1259.67 232.84" stroke="rgba(108, 3, 85, 1)" stroke-width="1.5"></path><path d="M1157.21 60.48L1265.2 -110.83" stroke="rgba(108, 3, 85, 1)" stroke-width="1.5"></path><path d="M1106.38 340.32L1106.38 340.32" stroke="rgba(108, 3, 85, 1)" stroke-width="1.5"></path><path d="M1106.38 340.32L987.02 215.53" stroke="rgba(108, 3, 85, 1)" stroke-width="1.5"></path><path d="M1106.38 340.32L1259.67 232.84" stroke="rgba(108, 3, 85, 1)" stroke-width="1.5"></path><path d="M1106.38 340.32L1003 509.49" stroke="rgba(108, 3, 85, 1)" stroke-width="1.5"></path><path d="M1106.38 340.32L959.87 106.5" stroke="rgba(108, 3, 85, 1)" stroke-width="1.5"></path><path d="M1109.43 642.02L1109.43 642.02" stroke="rgba(108, 3, 85, 1)" stroke-width="1.5"></path><path d="M1109.43 642.02L1237.78 702.57" stroke="rgba(108, 3, 85, 1)" stroke-width="1.5"></path><path d="M1109.43 642.02L1312.41 561.11" stroke="rgba(108, 3, 85, 1)" stroke-width="1.5"></path><path d="M1109.43 642.02L814.19 645.83" stroke="rgba(108, 3, 85, 1)" stroke-width="1.5"></path><path d="M1265.2 -110.83L1265.2 -110.83" stroke="rgba(108, 3, 85, 1)" stroke-width="1.5"></path><path d="M1265.2 -110.83L1411.33 -48.33" stroke="rgba(108, 3, 85, 1)" stroke-width="1.5"></path><path d="M1265.2 -110.83L1291.5 63.83" stroke="rgba(108, 3, 85, 1)" stroke-width="1.5"></path><path d="M1265.2 -110.83L1436.07 58.51" stroke="rgba(108, 3, 85, 1)" stroke-width="1.5"></path><path d="M1265.2 -110.83L993.4 -75.95" stroke="rgba(108, 3, 85, 1)" stroke-width="1.5"></path><path d="M1291.5 63.83L1291.5 63.83" stroke="rgba(108, 3, 85, 1)" stroke-width="1.5"></path><path d="M1291.5 63.83L1436.07 58.51" stroke="rgba(108, 3, 85, 1)" stroke-width="1.5"></path><path d="M1291.5 63.83L1411.33 -48.33" stroke="rgba(108, 3, 85, 1)" stroke-width="1.5"></path><path d="M1259.67 232.84L1259.67 232.84" stroke="rgba(108, 3, 85, 1)" stroke-width="1.5"></path><path d="M1259.67 232.84L1418.47 219.36" stroke="rgba(108, 3, 85, 1)" stroke-width="1.5"></path><path d="M1259.67 232.84L1291.5 63.83" stroke="rgba(108, 3, 85, 1)" stroke-width="1.5"></path><path d="M1312.41 561.11L1312.41 561.11" stroke="rgba(108, 3, 85, 1)" stroke-width="1.5"></path><path d="M1312.41 561.11L1237.78 702.57" stroke="rgba(108, 3, 85, 1)" stroke-width="1.5"></path><path d="M1312.41 561.11L1430.09 672.08" stroke="rgba(108, 3, 85, 1)" stroke-width="1.5"></path><path d="M1312.41 561.11L1458.55 491.66" stroke="rgba(108, 3, 85, 1)" stroke-width="1.5"></path><path d="M1312.41 561.11L1441.44 387.3" stroke="rgba(108, 3, 85, 1)" stroke-width="1.5"></path><path d="M1237.78 702.57L1237.78 702.57" stroke="rgba(108, 3, 85, 1)" stroke-width="1.5"></path><path d="M1237.78 702.57L1430.09 672.08" stroke="rgba(108, 3, 85, 1)" stroke-width="1.5"></path><path d="M1237.78 702.57L988.24 707.41" stroke="rgba(108, 3, 85, 1)" stroke-width="1.5"></path><path d="M1237.78 702.57L1538.05 674.7" stroke="rgba(108, 3, 85, 1)" stroke-width="1.5"></path><path d="M1411.33 -48.33L1411.33 -48.33" stroke="rgba(108, 3, 85, 1)" stroke-width="1.5"></path><path d="M1411.33 -48.33L1436.07 58.51" stroke="rgba(108, 3, 85, 1)" stroke-width="1.5"></path><path d="M1411.33 -48.33L1574.22 100.5" stroke="rgba(108, 3, 85, 1)" stroke-width="1.5"></path><path d="M1436.07 58.51L1436.07 58.51" stroke="rgba(108, 3, 85, 1)" stroke-width="1.5"></path><path d="M1436.07 58.51L1574.22 100.5" stroke="rgba(108, 3, 85, 1)" stroke-width="1.5"></path><path d="M1436.07 58.51L1418.47 219.36" stroke="rgba(108, 3, 85, 1)" stroke-width="1.5"></path><path d="M1436.07 58.51L1580.63 192.46" stroke="rgba(108, 3, 85, 1)" stroke-width="1.5"></path><path d="M1418.47 219.36L1418.47 219.36" stroke="rgba(108, 3, 85, 1)" stroke-width="1.5"></path><path d="M1418.47 219.36L1580.63 192.46" stroke="rgba(108, 3, 85, 1)" stroke-width="1.5"></path><path d="M1418.47 219.36L1441.44 387.3" stroke="rgba(108, 3, 85, 1)" stroke-width="1.5"></path><path d="M1441.44 387.3L1441.44 387.3" stroke="rgba(108, 3, 85, 1)" stroke-width="1.5"></path><path d="M1441.44 387.3L1458.55 491.66" stroke="rgba(108, 3, 85, 1)" stroke-width="1.5"></path><path d="M1441.44 387.3L1605.42 521.68" stroke="rgba(108, 3, 85, 1)" stroke-width="1.5"></path><path d="M1441.44 387.3L1259.67 232.84" stroke="rgba(108, 3, 85, 1)" stroke-width="1.5"></path><path d="M1441.44 387.3L1580.63 192.46" stroke="rgba(108, 3, 85, 1)" stroke-width="1.5"></path><path d="M1458.55 491.66L1458.55 491.66" stroke="rgba(108, 3, 85, 1)" stroke-width="1.5"></path><path d="M1458.55 491.66L1605.42 521.68" stroke="rgba(108, 3, 85, 1)" stroke-width="1.5"></path><path d="M1430.09 672.08L1430.09 672.08" stroke="rgba(108, 3, 85, 1)" stroke-width="1.5"></path><path d="M1430.09 672.08L1538.05 674.7" stroke="rgba(108, 3, 85, 1)" stroke-width="1.5"></path><path d="M1430.09 672.08L1458.55 491.66" stroke="rgba(108, 3, 85, 1)" stroke-width="1.5"></path><path d="M1574.22 100.5L1574.22 100.5" stroke="rgba(108, 3, 85, 1)" stroke-width="1.5"></path><path d="M1574.22 100.5L1580.63 192.46" stroke="rgba(108, 3, 85, 1)" stroke-width="1.5"></path><path d="M1574.22 100.5L1418.47 219.36" stroke="rgba(108, 3, 85, 1)" stroke-width="1.5"></path><path d="M1580.63 192.46L1580.63 192.46" stroke="rgba(108, 3, 85, 1)" stroke-width="1.5"></path><path d="M1605.42 521.68L1605.42 521.68" stroke="rgba(108, 3, 85, 1)" stroke-width="1.5"></path><path d="M1605.42 521.68L1538.05 674.7" stroke="rgba(108, 3, 85, 1)" stroke-width="1.5"></path><path d="M1605.42 521.68L1430.09 672.08" stroke="rgba(108, 3, 85, 1)" stroke-width="1.5"></path><path d="M1538.05 674.7L1538.05 674.7" stroke="rgba(108, 3, 85, 1)" stroke-width="1.5"></path><path d="M1538.05 674.7L1458.55 491.66" stroke="rgba(108, 3, 85, 1)" stroke-width="1.5"></path><circle r="5" cx="-62.97" cy="394.29" fill="rgba(108, 3, 85, 1)"></circle><circle r="5" cx="-85.89" cy="560.05" fill="rgba(108, 3, 85, 1)"></circle><circle r="5" cx="50.25" cy="371.02" fill="rgba(108, 3, 85, 1)"></circle><circle r="5" cx="109.67" cy="501.66" fill="rgba(108, 3, 85, 1)"></circle><circle r="5" cx="78.44" cy="692.48" fill="rgba(108, 3, 85, 1)"></circle><circle r="5" cx="259.36" cy="338.59" fill="rgba(108, 3, 85, 1)"></circle><circle r="5" cx="210.79" cy="497.12" fill="rgba(108, 3, 85, 1)"></circle><circle r="5" cx="225.87" cy="671.56" fill="rgba(108, 3, 85, 1)"></circle><circle r="5" cx="370" cy="360.54" fill="rgba(108, 3, 85, 1)"></circle><circle r="5" cx="379.59" cy="508.48" fill="rgba(108, 3, 85, 1)"></circle><circle r="5" cx="402.43" cy="648.97" fill="rgba(108, 3, 85, 1)"></circle><circle r="5" cx="546.91" cy="396.84" fill="rgba(108, 3, 85, 1)"></circle><circle r="5" cx="516.46" cy="550.53" fill="rgba(108, 3, 85, 1)"></circle><circle r="5" cx="533.69" cy="640.25" fill="rgba(108, 3, 85, 1)"></circle><circle r="5" cx="706.48" cy="340.56" fill="rgba(108, 3, 85, 1)"></circle><circle r="5" cx="680.55" cy="508.21" fill="rgba(108, 3, 85, 1)"></circle><circle r="5" cx="639.32" cy="672.92" fill="rgba(108, 3, 85, 1)"></circle><circle r="5" cx="860.38" cy="83.84" fill="rgba(108, 3, 85, 1)"></circle><circle r="5" cx="826.91" cy="207.93" fill="rgba(108, 3, 85, 1)"></circle><circle r="5" cx="798.37" cy="350.31" fill="rgba(108, 3, 85, 1)"></circle><circle r="5" cx="831.39" cy="498.13" fill="rgba(108, 3, 85, 1)"></circle><circle r="5" cx="814.19" cy="645.83" fill="rgba(108, 3, 85, 1)"></circle><circle r="5" cx="993.4" cy="-75.95" fill="rgba(108, 3, 85, 1)"></circle><circle r="5" cx="959.87" cy="106.5" fill="rgba(108, 3, 85, 1)"></circle><circle r="5" cx="987.02" cy="215.53" fill="rgba(108, 3, 85, 1)"></circle><circle r="5" cx="941.98" cy="354.55" fill="rgba(108, 3, 85, 1)"></circle><circle r="5" cx="1003" cy="509.49" fill="rgba(108, 3, 85, 1)"></circle><circle r="5" cx="988.24" cy="707.41" fill="rgba(108, 3, 85, 1)"></circle><circle r="5" cx="1147.75" cy="-59.52" fill="rgba(108, 3, 85, 1)"></circle><circle r="5" cx="1157.21" cy="60.48" fill="rgba(108, 3, 85, 1)"></circle><circle r="5" cx="1106.38" cy="340.32" fill="rgba(108, 3, 85, 1)"></circle><circle r="5" cx="1109.43" cy="642.02" fill="rgba(108, 3, 85, 1)"></circle><circle r="5" cx="1265.2" cy="-110.83" fill="rgba(108, 3, 85, 1)"></circle><circle r="5" cx="1291.5" cy="63.83" fill="rgba(108, 3, 85, 1)"></circle><circle r="5" cx="1259.67" cy="232.84" fill="rgba(108, 3, 85, 1)"></circle><circle r="5" cx="1312.41" cy="561.11" fill="rgba(108, 3, 85, 1)"></circle><circle r="5" cx="1237.78" cy="702.57" fill="rgba(108, 3, 85, 1)"></circle><circle r="5" cx="1411.33" cy="-48.33" fill="rgba(108, 3, 85, 1)"></circle><circle r="5" cx="1436.07" cy="58.51" fill="rgba(108, 3, 85, 1)"></circle><circle r="5" cx="1418.47" cy="219.36" fill="rgba(108, 3, 85, 1)"></circle><circle r="5" cx="1441.44" cy="387.3" fill="rgba(108, 3, 85, 1)"></circle><circle r="5" cx="1458.55" cy="491.66" fill="rgba(108, 3, 85, 1)"></circle><circle r="5" cx="1430.09" cy="672.08" fill="rgba(108, 3, 85, 1)"></circle><circle r="5" cx="1574.22" cy="100.5" fill="rgba(108, 3, 85, 1)"></circle><circle r="5" cx="1580.63" cy="192.46" fill="rgba(108, 3, 85, 1)"></circle><circle r="5" cx="1605.42" cy="521.68" fill="rgba(108, 3, 85, 1)"></circle><circle r="5" cx="1538.05" cy="674.7" fill="rgba(108, 3, 85, 1)"></circle><path d="M43.01 505.92L43.01 505.92" stroke="hsl(320.4, 97%, 79%)" stroke-width="1.5"></path><path d="M43.01 505.92L-51.81 556.21" stroke="hsl(320.4, 97%, 79%)" stroke-width="1.5"></path><path d="M43.01 505.92L108.2 645.28" stroke="hsl(320.4, 97%, 79%)" stroke-width="1.5"></path><path d="M43.01 505.92L-88.41 671.97" stroke="hsl(320.4, 97%, 79%)" stroke-width="1.5"></path><path d="M43.01 505.92L258.13 524.33" stroke="hsl(320.4, 97%, 79%)" stroke-width="1.5"></path><path d="M258.13 524.33L258.13 524.33" stroke="hsl(320.4, 97%, 79%)" stroke-width="1.5"></path><path d="M258.13 524.33L399.88 545.77" stroke="hsl(320.4, 97%, 79%)" stroke-width="1.5"></path><path d="M258.13 524.33L224.23 680.25" stroke="hsl(320.4, 97%, 79%)" stroke-width="1.5"></path><path d="M258.13 524.33L108.2 645.28" stroke="hsl(320.4, 97%, 79%)" stroke-width="1.5"></path><path d="M258.13 524.33L489.65 498.97" stroke="hsl(320.4, 97%, 79%)" stroke-width="1.5"></path><path d="M224.23 680.25L224.23 680.25" stroke="hsl(320.4, 97%, 79%)" stroke-width="1.5"></path><path d="M224.23 680.25L108.2 645.28" stroke="hsl(320.4, 97%, 79%)" stroke-width="1.5"></path><path d="M224.23 680.25L399.88 545.77" stroke="hsl(320.4, 97%, 79%)" stroke-width="1.5"></path><path d="M224.23 680.25L43.01 505.92" stroke="hsl(320.4, 97%, 79%)" stroke-width="1.5"></path><path d="M224.23 680.25L-51.81 556.21" stroke="hsl(320.4, 97%, 79%)" stroke-width="1.5"></path><path d="M224.23 680.25L-88.41 671.97" stroke="hsl(320.4, 97%, 79%)" stroke-width="1.5"></path><path d="M489.65 498.97L489.65 498.97" stroke="hsl(320.4, 97%, 79%)" stroke-width="1.5"></path><path d="M489.65 498.97L399.88 545.77" stroke="hsl(320.4, 97%, 79%)" stroke-width="1.5"></path><path d="M489.65 498.97L658.72 533.45" stroke="hsl(320.4, 97%, 79%)" stroke-width="1.5"></path><path d="M658.72 533.45L658.72 533.45" stroke="hsl(320.4, 97%, 79%)" stroke-width="1.5"></path><path d="M658.72 533.45L658.09 641.3" stroke="hsl(320.4, 97%, 79%)" stroke-width="1.5"></path><path d="M658.72 533.45L646.3 392.16" stroke="hsl(320.4, 97%, 79%)" stroke-width="1.5"></path><path d="M1445.81 -61.61L1445.81 -61.61" stroke="hsl(320.4, 97%, 79%)" stroke-width="1.5"></path><path d="M1445.81 -61.61L1561.68 -60" stroke="hsl(320.4, 97%, 79%)" stroke-width="1.5"></path><path d="M1445.81 -61.61L1422.79 92.51" stroke="hsl(320.4, 97%, 79%)" stroke-width="1.5"></path><path d="M1445.81 -61.61L1255.49 -76.11" stroke="hsl(320.4, 97%, 79%)" stroke-width="1.5"></path><path d="M1445.81 -61.61L1572.75 111.57" stroke="hsl(320.4, 97%, 79%)" stroke-width="1.5"></path><path d="M1445.81 -61.61L1245.6 42.93" stroke="hsl(320.4, 97%, 79%)" stroke-width="1.5"></path><path d="M1445.81 -61.61L1394.08 259.65" stroke="hsl(320.4, 97%, 79%)" stroke-width="1.5"></path><path d="M1422.79 92.51L1422.79 92.51" stroke="hsl(320.4, 97%, 79%)" stroke-width="1.5"></path><path d="M1422.79 92.51L1572.75 111.57" stroke="hsl(320.4, 97%, 79%)" stroke-width="1.5"></path><path d="M1422.79 92.51L1394.08 259.65" stroke="hsl(320.4, 97%, 79%)" stroke-width="1.5"></path><path d="M1422.79 92.51L1245.6 42.93" stroke="hsl(320.4, 97%, 79%)" stroke-width="1.5"></path><path d="M1422.79 92.51L1283.46 227.87" stroke="hsl(320.4, 97%, 79%)" stroke-width="1.5"></path><path d="M1422.79 92.51L1561.68 -60" stroke="hsl(320.4, 97%, 79%)" stroke-width="1.5"></path><path d="M1572.75 111.57L1572.75 111.57" stroke="hsl(320.4, 97%, 79%)" stroke-width="1.5"></path><path d="M1572.75 111.57L1599.11 248.69" stroke="hsl(320.4, 97%, 79%)" stroke-width="1.5"></path><path d="M-51.81 556.21L-51.81 556.21" stroke="hsl(320.4, 97%, 79%)" stroke-width="1.5"></path><path d="M-51.81 556.21L-88.41 671.97" stroke="hsl(320.4, 97%, 79%)" stroke-width="1.5"></path><path d="M-51.81 556.21L108.2 645.28" stroke="hsl(320.4, 97%, 79%)" stroke-width="1.5"></path><path d="M-51.81 556.21L258.13 524.33" stroke="hsl(320.4, 97%, 79%)" stroke-width="1.5"></path><path d="M-51.81 556.21L399.88 545.77" stroke="hsl(320.4, 97%, 79%)" stroke-width="1.5"></path><path d="M-88.41 671.97L-88.41 671.97" stroke="hsl(320.4, 97%, 79%)" stroke-width="1.5"></path><path d="M-88.41 671.97L108.2 645.28" stroke="hsl(320.4, 97%, 79%)" stroke-width="1.5"></path><path d="M-88.41 671.97L258.13 524.33" stroke="hsl(320.4, 97%, 79%)" stroke-width="1.5"></path><path d="M108.2 645.28L108.2 645.28" stroke="hsl(320.4, 97%, 79%)" stroke-width="1.5"></path><path d="M108.2 645.28L399.88 545.77" stroke="hsl(320.4, 97%, 79%)" stroke-width="1.5"></path><path d="M399.88 545.77L399.88 545.77" stroke="hsl(320.4, 97%, 79%)" stroke-width="1.5"></path><path d="M399.88 545.77L548.55 680.52" stroke="hsl(320.4, 97%, 79%)" stroke-width="1.5"></path><path d="M548.55 680.52L548.55 680.52" stroke="hsl(320.4, 97%, 79%)" stroke-width="1.5"></path><path d="M548.55 680.52L658.09 641.3" stroke="hsl(320.4, 97%, 79%)" stroke-width="1.5"></path><path d="M548.55 680.52L658.72 533.45" stroke="hsl(320.4, 97%, 79%)" stroke-width="1.5"></path><path d="M548.55 680.52L489.65 498.97" stroke="hsl(320.4, 97%, 79%)" stroke-width="1.5"></path><path d="M646.3 392.16L646.3 392.16" stroke="hsl(320.4, 97%, 79%)" stroke-width="1.5"></path><path d="M646.3 392.16L489.65 498.97" stroke="hsl(320.4, 97%, 79%)" stroke-width="1.5"></path><path d="M646.3 392.16L842.69 370.53" stroke="hsl(320.4, 97%, 79%)" stroke-width="1.5"></path><path d="M658.09 641.3L658.09 641.3" stroke="hsl(320.4, 97%, 79%)" stroke-width="1.5"></path><path d="M658.09 641.3L822.57 697.06" stroke="hsl(320.4, 97%, 79%)" stroke-width="1.5"></path><path d="M658.09 641.3L489.65 498.97" stroke="hsl(320.4, 97%, 79%)" stroke-width="1.5"></path><path d="M842.69 370.53L842.69 370.53" stroke="hsl(320.4, 97%, 79%)" stroke-width="1.5"></path><path d="M842.69 370.53L937.69 373.19" stroke="hsl(320.4, 97%, 79%)" stroke-width="1.5"></path><path d="M842.69 370.53L983.56 519.17" stroke="hsl(320.4, 97%, 79%)" stroke-width="1.5"></path><path d="M842.69 370.53L658.72 533.45" stroke="hsl(320.4, 97%, 79%)" stroke-width="1.5"></path><path d="M842.69 370.53L1108.56 410.9" stroke="hsl(320.4, 97%, 79%)" stroke-width="1.5"></path><path d="M822.57 697.06L822.57 697.06" stroke="hsl(320.4, 97%, 79%)" stroke-width="1.5"></path><path d="M822.57 697.06L999.1 644.7" stroke="hsl(320.4, 97%, 79%)" stroke-width="1.5"></path><path d="M822.57 697.06L658.72 533.45" stroke="hsl(320.4, 97%, 79%)" stroke-width="1.5"></path><path d="M822.57 697.06L983.56 519.17" stroke="hsl(320.4, 97%, 79%)" stroke-width="1.5"></path><path d="M937.69 373.19L937.69 373.19" stroke="hsl(320.4, 97%, 79%)" stroke-width="1.5"></path><path d="M937.69 373.19L983.56 519.17" stroke="hsl(320.4, 97%, 79%)" stroke-width="1.5"></path><path d="M937.69 373.19L1108.56 410.9" stroke="hsl(320.4, 97%, 79%)" stroke-width="1.5"></path><path d="M937.69 373.19L1134.02 236.12" stroke="hsl(320.4, 97%, 79%)" stroke-width="1.5"></path><path d="M937.69 373.19L999.1 644.7" stroke="hsl(320.4, 97%, 79%)" stroke-width="1.5"></path><path d="M983.56 519.17L983.56 519.17" stroke="hsl(320.4, 97%, 79%)" stroke-width="1.5"></path><path d="M983.56 519.17L999.1 644.7" stroke="hsl(320.4, 97%, 79%)" stroke-width="1.5"></path><path d="M999.1 644.7L999.1 644.7" stroke="hsl(320.4, 97%, 79%)" stroke-width="1.5"></path><path d="M999.1 644.7L1106.68 658.22" stroke="hsl(320.4, 97%, 79%)" stroke-width="1.5"></path><path d="M999.1 644.7L1108.56 410.9" stroke="hsl(320.4, 97%, 79%)" stroke-width="1.5"></path><path d="M999.1 644.7L1247.37 535.9" stroke="hsl(320.4, 97%, 79%)" stroke-width="1.5"></path><path d="M1158.16 97.08L1158.16 97.08" stroke="hsl(320.4, 97%, 79%)" stroke-width="1.5"></path><path d="M1158.16 97.08L1245.6 42.93" stroke="hsl(320.4, 97%, 79%)" stroke-width="1.5"></path><path d="M1158.16 97.08L1134.02 236.12" stroke="hsl(320.4, 97%, 79%)" stroke-width="1.5"></path><path d="M1158.16 97.08L1283.46 227.87" stroke="hsl(320.4, 97%, 79%)" stroke-width="1.5"></path><path d="M1158.16 97.08L1255.49 -76.11" stroke="hsl(320.4, 97%, 79%)" stroke-width="1.5"></path><path d="M1134.02 236.12L1134.02 236.12" stroke="hsl(320.4, 97%, 79%)" stroke-width="1.5"></path><path d="M1134.02 236.12L1283.46 227.87" stroke="hsl(320.4, 97%, 79%)" stroke-width="1.5"></path><path d="M1134.02 236.12L1108.56 410.9" stroke="hsl(320.4, 97%, 79%)" stroke-width="1.5"></path><path d="M1134.02 236.12L1239.47 399.42" stroke="hsl(320.4, 97%, 79%)" stroke-width="1.5"></path><path d="M1134.02 236.12L1245.6 42.93" stroke="hsl(320.4, 97%, 79%)" stroke-width="1.5"></path><path d="M1108.56 410.9L1108.56 410.9" stroke="hsl(320.4, 97%, 79%)" stroke-width="1.5"></path><path d="M1108.56 410.9L1239.47 399.42" stroke="hsl(320.4, 97%, 79%)" stroke-width="1.5"></path><path d="M1108.56 410.9L983.56 519.17" stroke="hsl(320.4, 97%, 79%)" stroke-width="1.5"></path><path d="M1108.56 410.9L1247.37 535.9" stroke="hsl(320.4, 97%, 79%)" stroke-width="1.5"></path><path d="M1108.56 410.9L1106.68 658.22" stroke="hsl(320.4, 97%, 79%)" stroke-width="1.5"></path><path d="M1106.68 658.22L1106.68 658.22" stroke="hsl(320.4, 97%, 79%)" stroke-width="1.5"></path><path d="M1106.68 658.22L1276.2 711.16" stroke="hsl(320.4, 97%, 79%)" stroke-width="1.5"></path><path d="M1106.68 658.22L983.56 519.17" stroke="hsl(320.4, 97%, 79%)" stroke-width="1.5"></path><path d="M1106.68 658.22L1247.37 535.9" stroke="hsl(320.4, 97%, 79%)" stroke-width="1.5"></path><path d="M1255.49 -76.11L1255.49 -76.11" stroke="hsl(320.4, 97%, 79%)" stroke-width="1.5"></path><path d="M1255.49 -76.11L1245.6 42.93" stroke="hsl(320.4, 97%, 79%)" stroke-width="1.5"></path><path d="M1245.6 42.93L1245.6 42.93" stroke="hsl(320.4, 97%, 79%)" stroke-width="1.5"></path><path d="M1245.6 42.93L1283.46 227.87" stroke="hsl(320.4, 97%, 79%)" stroke-width="1.5"></path><path d="M1283.46 227.87L1283.46 227.87" stroke="hsl(320.4, 97%, 79%)" stroke-width="1.5"></path><path d="M1283.46 227.87L1394.08 259.65" stroke="hsl(320.4, 97%, 79%)" stroke-width="1.5"></path><path d="M1283.46 227.87L1239.47 399.42" stroke="hsl(320.4, 97%, 79%)" stroke-width="1.5"></path><path d="M1239.47 399.42L1239.47 399.42" stroke="hsl(320.4, 97%, 79%)" stroke-width="1.5"></path><path d="M1239.47 399.42L1247.37 535.9" stroke="hsl(320.4, 97%, 79%)" stroke-width="1.5"></path><path d="M1239.47 399.42L1447.18 393.54" stroke="hsl(320.4, 97%, 79%)" stroke-width="1.5"></path><path d="M1239.47 399.42L1394.08 259.65" stroke="hsl(320.4, 97%, 79%)" stroke-width="1.5"></path><path d="M1247.37 535.9L1247.37 535.9" stroke="hsl(320.4, 97%, 79%)" stroke-width="1.5"></path><path d="M1247.37 535.9L1398.39 556.73" stroke="hsl(320.4, 97%, 79%)" stroke-width="1.5"></path><path d="M1247.37 535.9L1276.2 711.16" stroke="hsl(320.4, 97%, 79%)" stroke-width="1.5"></path><path d="M1276.2 711.16L1276.2 711.16" stroke="hsl(320.4, 97%, 79%)" stroke-width="1.5"></path><path d="M1276.2 711.16L1389.73 664.58" stroke="hsl(320.4, 97%, 79%)" stroke-width="1.5"></path><path d="M1276.2 711.16L1398.39 556.73" stroke="hsl(320.4, 97%, 79%)" stroke-width="1.5"></path><path d="M1394.08 259.65L1394.08 259.65" stroke="hsl(320.4, 97%, 79%)" stroke-width="1.5"></path><path d="M1394.08 259.65L1447.18 393.54" stroke="hsl(320.4, 97%, 79%)" stroke-width="1.5"></path><path d="M1447.18 393.54L1447.18 393.54" stroke="hsl(320.4, 97%, 79%)" stroke-width="1.5"></path><path d="M1447.18 393.54L1612.11 356.72" stroke="hsl(320.4, 97%, 79%)" stroke-width="1.5"></path><path d="M1398.39 556.73L1398.39 556.73" stroke="hsl(320.4, 97%, 79%)" stroke-width="1.5"></path><path d="M1398.39 556.73L1389.73 664.58" stroke="hsl(320.4, 97%, 79%)" stroke-width="1.5"></path><path d="M1398.39 556.73L1447.18 393.54" stroke="hsl(320.4, 97%, 79%)" stroke-width="1.5"></path><path d="M1398.39 556.73L1604.62 562.02" stroke="hsl(320.4, 97%, 79%)" stroke-width="1.5"></path><path d="M1389.73 664.58L1389.73 664.58" stroke="hsl(320.4, 97%, 79%)" stroke-width="1.5"></path><path d="M1389.73 664.58L1247.37 535.9" stroke="hsl(320.4, 97%, 79%)" stroke-width="1.5"></path><path d="M1389.73 664.58L1602.03 658.09" stroke="hsl(320.4, 97%, 79%)" stroke-width="1.5"></path><path d="M1389.73 664.58L1604.62 562.02" stroke="hsl(320.4, 97%, 79%)" stroke-width="1.5"></path><path d="M1389.73 664.58L1447.18 393.54" stroke="hsl(320.4, 97%, 79%)" stroke-width="1.5"></path><path d="M1561.68 -60L1561.68 -60" stroke="hsl(320.4, 97%, 79%)" stroke-width="1.5"></path><path d="M1561.68 -60L1572.75 111.57" stroke="hsl(320.4, 97%, 79%)" stroke-width="1.5"></path><path d="M1561.68 -60L1255.49 -76.11" stroke="hsl(320.4, 97%, 79%)" stroke-width="1.5"></path><path d="M1561.68 -60L1599.11 248.69" stroke="hsl(320.4, 97%, 79%)" stroke-width="1.5"></path><path d="M1599.11 248.69L1599.11 248.69" stroke="hsl(320.4, 97%, 79%)" stroke-width="1.5"></path><path d="M1599.11 248.69L1612.11 356.72" stroke="hsl(320.4, 97%, 79%)" stroke-width="1.5"></path><path d="M1599.11 248.69L1394.08 259.65" stroke="hsl(320.4, 97%, 79%)" stroke-width="1.5"></path><path d="M1599.11 248.69L1447.18 393.54" stroke="hsl(320.4, 97%, 79%)" stroke-width="1.5"></path><path d="M1612.11 356.72L1612.11 356.72" stroke="hsl(320.4, 97%, 79%)" stroke-width="1.5"></path><path d="M1604.62 562.02L1604.62 562.02" stroke="hsl(320.4, 97%, 79%)" stroke-width="1.5"></path><path d="M1604.62 562.02L1602.03 658.09" stroke="hsl(320.4, 97%, 79%)" stroke-width="1.5"></path><path d="M1604.62 562.02L1612.11 356.72" stroke="hsl(320.4, 97%, 79%)" stroke-width="1.5"></path><path d="M1602.03 658.09L1602.03 658.09" stroke="hsl(320.4, 97%, 79%)" stroke-width="1.5"></path><path d="M1602.03 658.09L1398.39 556.73" stroke="hsl(320.4, 97%, 79%)" stroke-width="1.5"></path><circle r="25" cx="43.01" cy="505.92" fill="url(#SvgjsRadialGradient1017)"></circle><circle r="25" cx="258.13" cy="524.33" fill="url(#SvgjsRadialGradient1017)"></circle><circle r="25" cx="224.23" cy="680.25" fill="url(#SvgjsRadialGradient1017)"></circle><circle r="25" cx="489.65" cy="498.97" fill="url(#SvgjsRadialGradient1017)"></circle><circle r="25" cx="658.72" cy="533.45" fill="url(#SvgjsRadialGradient1017)"></circle><circle r="25" cx="1445.81" cy="-61.61" fill="url(#SvgjsRadialGradient1017)"></circle><circle r="25" cx="1422.79" cy="92.51" fill="url(#SvgjsRadialGradient1017)"></circle><circle r="25" cx="1572.75" cy="111.57" fill="url(#SvgjsRadialGradient1017)"></circle><circle r="5" cx="-51.81" cy="556.21" fill="#fe9ddd"></circle><circle r="5" cx="-88.41" cy="671.97" fill="#fe9ddd"></circle><circle r="5" cx="108.2" cy="645.28" fill="#fe9ddd"></circle><circle r="5" cx="399.88" cy="545.77" fill="#fe9ddd"></circle><circle r="5" cx="548.55" cy="680.52" fill="#fe9ddd"></circle><circle r="5" cx="646.3" cy="392.16" fill="#fe9ddd"></circle><circle r="5" cx="658.09" cy="641.3" fill="#fe9ddd"></circle><circle r="5" cx="842.69" cy="370.53" fill="#fe9ddd"></circle><circle r="5" cx="822.57" cy="697.06" fill="#fe9ddd"></circle><circle r="5" cx="937.69" cy="373.19" fill="#fe9ddd"></circle><circle r="5" cx="983.56" cy="519.17" fill="#fe9ddd"></circle><circle r="5" cx="999.1" cy="644.7" fill="#fe9ddd"></circle><circle r="5" cx="1158.16" cy="97.08" fill="#fe9ddd"></circle><circle r="5" cx="1134.02" cy="236.12" fill="#fe9ddd"></circle><circle r="5" cx="1108.56" cy="410.9" fill="#fe9ddd"></circle><circle r="5" cx="1106.68" cy="658.22" fill="#fe9ddd"></circle><circle r="5" cx="1255.49" cy="-76.11" fill="#fe9ddd"></circle><circle r="5" cx="1245.6" cy="42.93" fill="#fe9ddd"></circle><circle r="5" cx="1283.46" cy="227.87" fill="#fe9ddd"></circle><circle r="5" cx="1239.47" cy="399.42" fill="#fe9ddd"></circle><circle r="5" cx="1247.37" cy="535.9" fill="#fe9ddd"></circle><circle r="5" cx="1276.2" cy="711.16" fill="#fe9ddd"></circle><circle r="5" cx="1394.08" cy="259.65" fill="#fe9ddd"></circle><circle r="5" cx="1447.18" cy="393.54" fill="#fe9ddd"></circle><circle r="5" cx="1398.39" cy="556.73" fill="#fe9ddd"></circle><circle r="5" cx="1389.73" cy="664.58" fill="#fe9ddd"></circle><circle r="5" cx="1561.68" cy="-60" fill="#fe9ddd"></circle><circle r="5" cx="1599.11" cy="248.69" fill="#fe9ddd"></circle><circle r="5" cx="1612.11" cy="356.72" fill="#fe9ddd"></circle><circle r="5" cx="1604.62" cy="562.02" fill="#fe9ddd"></circle><circle r="5" cx="1602.03" cy="658.09" fill="#fe9ddd"></circle></g><defs><mask id="SvgjsMask1016"><rect width="1440" height="560" fill="#ffffff"></rect></mask><radialGradient id="SvgjsRadialGradient1017"><stop stop-color="#ffffff" offset="0.1"></stop><stop stop-color="rgba(252, 58, 186, 1)" offset="0.2"></stop><stop stop-color="rgba(252, 58, 186, 0)" offset="1"></stop></radialGradient></defs></svg>