<svg version="1.1" xmlns="http://www.w3.org/2000/svg" xmlns:xlink="http://www.w3.org/1999/xlink" width="40" height="40" viewBox="0,0,256,256"><g fill="#fe4bc6" fill-rule="evenodd" stroke="none" stroke-width="1" stroke-linecap="butt" stroke-linejoin="miter" stroke-miterlimit="10" stroke-dasharray="" stroke-dashoffset="0" font-family="none" font-weight="none" font-size="none" text-anchor="none" style="mix-blend-mode: normal"><g transform="scale(0.5,0.5)"><path d="M437,82c0,2 1,7 2,13v0c0,0 14,105 -16,188c-5,14 -11,28 -17,40l-246,-248c41,-11 64,-16 101,-36v0c37,25 130,42 176,41zM79,109c-3,31 -6,109 17,175c30,84 84,141 113,156c27,14 47,23 50,24c3,-1 23,-10 50,-24c14,-7 33,-24 53,-48l-282,-282zM460,57l1,-1c0,0 0,0 0,1v0c0,0 1,5 2,15v0v0c1,11 3,29 4,51c10,151 -54,318 -207,375v0c0,0 0,0 -1,0h-1v0c-118,-44 -203,-180 -208,-304c-2,-44 1,-94 8,-138c79,2 132,-15 203,-45c72,31 119,47 199,47z"></path></g></g></svg>