<svg version="1.1" xmlns="http://www.w3.org/2000/svg" xmlns:xlink="http://www.w3.org/1999/xlink" width="40px" height="40px" viewBox="0,0,256,256"><g fill="#fe4bc6" fill-rule="nonzero" stroke="none" stroke-width="1" stroke-linecap="butt" stroke-linejoin="miter" stroke-miterlimit="10" stroke-dasharray="" stroke-dashoffset="0" font-family="none" font-weight="none" font-size="none" text-anchor="none" style="mix-blend-mode: normal"><g transform="scale(2.61224,2.61224)"><path d="M84.5,21.1c0,-1.10457 -0.89543,-2 -2,-2c-13.3,0 -23.5,-3.9 -32.1,-12.1c-0.35985,-0.3922 -0.86772,-0.61548 -1.4,-0.61548c-0.53228,0 -1.04015,0.22327 -1.4,0.61548c-8.6,8.2 -18.8,12.1 -32.1,12.1c-1.10457,0 -2,0.89543 -2,2c0,2.2 0,4.4 -0.1,6.7c-0.4,21.7 -1,51.3 34.9,63.7h1.3c36,-12.3 35.4,-42 35,-63.6c-0.1,-2.4 -0.1,-4.6 -0.1,-6.8zM49,87.5c-29.2,-10.4 -31.8,-33 -31.7,-53l45.7,45.8c-4.28914,3.07225 -9.0061,5.49812 -14,7.2zM66.2,77.8l-48.8,-48.8v-1.1c0,-1.6 0.1,-3.3 0.1,-4.8c5.04989,-0.14878 10.0588,-0.95559 14.9,-2.4l43.6,43.6c-2.26023,5.15101 -5.60257,9.75526 -9.8,13.5zM77.5,60.2l-41,-41c4.60422,-1.9559 8.83374,-4.69663 12.5,-8.1c8.6,7.8 18.7,11.6 31.5,12c0,1.6 0.1,3.2 0.1,4.8c0.2,10.4 0.4,21.9 -3.1,32.3z"></path></g></g></svg>