  <svg
            id="sellerLogo"
            version="1.1"
            xmlns="http://www.w3.org/2000/svg"
             xmlns:xlink="http://www.w3.org/1999/xlink"
            width="32px"
            height="32px"
            viewBox="0,0,256,256"
          >
            <g
              fill="#fe4bc6"
              fill-rule="nonzero"
              stroke="none"
              stroke-width="1"
              stroke-linecap="butt"
              stroke-linejoin="miter"
              stroke-miterlimit="10"
              stroke-dasharray=""
              stroke-dashoffset="0"
              font-family="none"
              font-weight="none"
              font-size="none"
              text-anchor="none"
              style="mix-blend-mode: normal"
            >
              <g transform="scale(8,8)">
                <path d="M3,2c-0.55225,0 -1,0.44775 -1,1v6c0,0.55225 0.44775,1 1,1h2v-4.5c0,-0.27637 0.22363,-0.5 0.5,-0.5c0.27637,0 0.5,0.22363 0.5,0.5v4.5h3v-4.5c0,-0.27637 0.22363,-0.5 0.5,-0.5c0.27637,0 0.5,0.22363 0.5,0.5v4.5h3v-4.5c0,-0.27637 0.22363,-0.5 0.5,-0.5c0.27637,0 0.5,0.22363 0.5,0.5v4.5h4v-4.5c0,-0.27637 0.22363,-0.5 0.5,-0.5c0.27637,0 0.5,0.22363 0.5,0.5v4.5h3v-4.5c0,-0.27637 0.22363,-0.5 0.5,-0.5c0.27637,0 0.5,0.22363 0.5,0.5v4.5h3v-4.5c0,-0.27637 0.22363,-0.5 0.5,-0.5c0.27637,0 0.5,0.22363 0.5,0.5v4.5h2c0.55225,0 1,-0.44775 1,-1v-6c0,-0.55225 -0.44775,-1 -1,-1zM4,11v18c0,0.55225 0.44727,1 1,1h22c0.55273,0 1,-0.44775 1,-1v-18h-2v12h-20v-12zM16,12c-1.65685,0 -3,1.34315 -3,3c0,1.65685 1.34315,3 3,3c1.65685,0 3,-1.34315 3,-3c0,-1.65685 -1.34315,-3 -3,-3zM16,18h-1c-2.20605,0 -4,1.79443 -4,4h10c0,-2.20557 -1.79395,-4 -4,-4z"></path>
              </g>
            </g>
            <g
              fill="#ffffff"
              fill-rule="nonzero"
              stroke="none"
              stroke-width="1"
              stroke-linecap="butt"
              stroke-linejoin="miter"
              stroke-miterlimit="10"
              stroke-dasharray=""
              stroke-dashoffset="0"
              font-family="none"
              font-weight="none"
              font-size="none"
              text-anchor="none"
              style="mix-blend-mode: normal"
            >
              <g>
                <path d="M89.25,213.405v0c0,-0.88667 -0.31333,-1.56667 -0.94,-2.04c-0.62667,-0.47333 -1.75,-0.97333 -3.37,-1.5c-1.62667,-0.52667 -2.91333,-1.04333 -3.86,-1.55v0c-2.58667,-1.4 -3.88,-3.28 -3.88,-5.64v0c0,-1.23333 0.34667,-2.33 1.04,-3.29c0.69333,-0.96667 1.68667,-1.72 2.98,-2.26c1.3,-0.54 2.75667,-0.81 4.37,-0.81v0c1.62667,0 3.07667,0.29333 4.35,0.88c1.26667,0.58667 2.25333,1.41667 2.96,2.49c0.7,1.07333 1.05,2.29333 1.05,3.66v0h-4.69c0,-1.04 -0.32667,-1.85 -0.98,-2.43c-0.65333,-0.58 -1.57667,-0.87 -2.77,-0.87v0c-1.14,0 -2.03,0.24333 -2.67,0.73c-0.63333,0.48667 -0.95,1.12333 -0.95,1.91v0c0,0.74 0.37333,1.36 1.12,1.86c0.74,0.5 1.83667,0.97 3.29,1.41v0c2.66667,0.8 4.60667,1.79333 5.82,2.98c1.22,1.18667 1.83,2.66667 1.83,4.44v0c0,1.96667 -0.74333,3.51 -2.23,4.63c-1.49333,1.12 -3.5,1.68 -6.02,1.68v0c-1.74667,0 -3.34,-0.32 -4.78,-0.96c-1.44,-0.64 -2.53667,-1.51667 -3.29,-2.63c-0.75333,-1.11333 -1.13,-2.40667 -1.13,-3.88v0h4.7c0,2.51333 1.5,3.77 4.5,3.77v0c1.11333,0 1.98333,-0.22667 2.61,-0.68c0.62667,-0.45333 0.94,-1.08667 0.94,-1.9zM110.81,205.845v3.67h-9v6.09h10.56v3.77h-15.25v-22.75h15.22v3.8h-10.53v5.42zM119.81,196.625v18.98h9.95v3.77h-14.64v-22.75zM137.14,196.625v18.98h9.95v3.77h-14.64v-22.75zM163.47,205.845v3.67h-9v6.09h10.56v3.77h-15.25v-22.75h15.22v3.8h-10.53v5.42zM180.47,219.375l-4.27,-8.33h-3.73v8.33h-4.69v-22.75h8.45c2.68667,0 4.76,0.6 6.22,1.8c1.46,1.19333 2.19,2.88667 2.19,5.08v0c0,1.54667 -0.33667,2.84 -1.01,3.88c-0.67333,1.03333 -1.69,1.85667 -3.05,2.47v0l4.92,9.3v0.22zM172.47,200.425v6.83h3.78c1.17333,0 2.08333,-0.3 2.73,-0.9c0.64667,-0.6 0.97,-1.42667 0.97,-2.48v0c0,-1.07333 -0.30333,-1.91667 -0.91,-2.53c-0.61333,-0.61333 -1.55,-0.92 -2.81,-0.92v0z"></path>
              </g>
            </g>
          </svg>