<svg version="1.1" xmlns="http://www.w3.org/2000/svg" xmlns:xlink="http://www.w3.org/1999/xlink" width="32px" height="32px" viewBox="0,0,256,256"><g fill="#fc3aba" fill-rule="nonzero" stroke="none" stroke-width="1" stroke-linecap="butt" stroke-linejoin="miter" stroke-miterlimit="10" stroke-dasharray="" stroke-dashoffset="0" font-family="none" font-weight="none" font-size="none" text-anchor="none" style="mix-blend-mode: normal"><g transform="scale(8,8)"><path d="M30,25h-0.5v-12c0,-0.55228 -0.44772,-1 -1,-1h-2.67c-0.55228,0 -1,0.44772 -1,1c0,0.55228 0.44772,1 1,1h1.67v11h-23v-11h1.67c0.55228,0 1,-0.44772 1,-1c0,-0.55228 -0.44772,-1 -1,-1h-2.67c-0.55228,0 -1,0.44772 -1,1v12h-0.5c-0.55228,0 -1,0.44772 -1,1v2c0,1.65685 1.34315,3 3,3h24c1.65685,0 3,-1.34315 3,-3v-2c0,-0.55228 -0.44772,-1 -1,-1zM29,28c0,0.55228 -0.44772,1 -1,1h-24c-0.55228,0 -1,-0.44772 -1,-1v-1h26z"></path><path d="M13,24h6c0.55228,0 1,-0.44772 1,-1c0,-0.55228 -0.44772,-1 -1,-1h-6c-0.55228,0 -1,0.44772 -1,1c0,0.55228 0.44772,1 1,1z"></path><path d="M15.52,20.88c0.3094,0.17863 0.6906,0.17863 1,0c4.30589,-2.40427 6.97573,-6.94835 6.98,-11.88v-4.3c-0.00202,-0.4037 -0.24657,-0.7666 -0.62,-0.92l-6.5,-2.7c-0.24149,-0.10953 -0.51851,-0.10953 -0.76,0l-6.5,2.7c-0.37343,0.1534 -0.61798,0.5163 -0.62,0.92v4.3c0.01236,4.94006 2.69868,9.48615 7.02,11.88zM14.22,7.76l1.08,1.13l2.48,-2.58c0.39004,-0.38772 1.01996,-0.38772 1.41,0v0c0.38772,0.39004 0.38772,1.01996 0,1.41l-3.19,3.28c-0.18879,0.19873 -0.45089,0.31125 -0.725,0.31125c-0.27411,0 -0.53621,-0.11252 -0.725,-0.31125l-1.8,-1.89c-0.38772,-0.39004 -0.38772,-1.01996 0,-1.41v0c0.19757,-0.19772 0.46888,-0.30373 0.74816,-0.29233c0.27928,0.0114 0.54104,0.13916 0.72184,0.35233z"></path></g></g></svg>